<svg id="Layer_1" xmlns="http://www.w3.org/2000/svg" width="20" height="20" viewBox="0 0 20 20"><style>.st0{display:none;fill:#1a1012}.st1{fill:#ccc}</style><path id="XMLID_1_" class="st0" d="M0 0h20v20H0z"/><g id="XMLID_3_"><g id="XMLID_4_" transform="translate(-172 -21)"><g id="contacts"><path id="XMLID_5_" class="st1" d="M189.7 36.7V29c-.2.2-.4.5-.7.7-1.8 1.4-3.2 2.5-4.3 3.4-.3.3-.6.5-.8.7-.2.2-.5.3-.9.5s-.7.2-1 .2c-.3 0-.7-.1-1-.2-.4-.2-.7-.3-.9-.5-.2-.2-.5-.4-.8-.7-1.1-.9-2.5-2-4.3-3.4-.2-.2-.5-.4-.7-.7v7.7c0 .1 0 .2.1.2s.1.1.2.1h14.8c.1 0 .2 0 .2-.1s.1-.1.1-.2zm0-10.6v-.4s0-.1-.1-.1l-.1-.1h-14.9c-.1 0-.2 0-.2.1-.1.1-.1.1-.1.2 0 1.1.5 2.1 1.5 2.9 1.3 1 2.6 2.1 4 3.2 0 0 .2.1.4.3.2.2.3.3.5.4.1.1.3.2.4.3.2.1.4.2.5.3.2.1.3.1.4.1.1 0 .3 0 .4-.1.2-.1.3-.2.5-.3.2-.1.3-.2.4-.3.1-.1.3-.2.5-.4s.3-.3.4-.3c1.4-1.1 2.7-2.2 4-3.2.4-.3.7-.7 1-1.2.4-.5.5-1 .5-1.4zm1.3-.4v10.9c0 .4-.2.8-.5 1.1-.3.3-.7.5-1.1.5h-14.8c-.4 0-.8-.2-1.1-.5-.3-.3-.5-.7-.5-1.1V25.7c0-.4.2-.8.5-1.1.3-.3.7-.5 1.1-.5h14.8c.4 0 .8.2 1.1.5.3.3.5.7.5 1.1z"/></g></g></g></svg>