<svg xmlns="http://www.w3.org/2000/svg" preserveAspectRatio="xMidYMid" width="20" height="20" viewBox="0 0 20 20"><defs><style>.cls-1{fill:#ff11a4;fill-rule:evenodd}</style><clipPath id="clip-path-1"><path d="M-648-301H552v3215H-648z"/></clipPath></defs><g clip-path="url(#clip-path-1)"><path d="M19.01 5.482L16.994 3.48a3.4 3.4 0 0 0-4.779 0L10.33 5.351a1.25 1.25 0 0 0-.325.552l-.171-.17a3.364 3.364 0 0 0-2.39-.982c-.903 0-1.752.348-2.39.982L.985 9.773a3.34 3.34 0 0 0 0 4.744l2.016 2.002a3.367 3.367 0 0 0 2.389.981c.904 0 1.753-.348 2.39-.981l1.885-1.872c.157-.155.267-.345.325-.551l.172.17a3.366 3.366 0 0 0 2.389.982 3.37 3.37 0 0 0 2.39-.982l4.069-4.04a3.318 3.318 0 0 0 .989-2.372c0-.897-.351-1.74-.989-2.372zM8.003 8.048a1.253 1.253 0 0 0-.651.714 3.356 3.356 0 0 0 .793 3.503l.288.285a1.254 1.254 0 0 0-.559.318L5.988 14.74a.85.85 0 0 1-1.195 0l-2.016-2.002a.834.834 0 0 1 0-1.186l4.07-4.041a.851.851 0 0 1 1.194 0l.422.419c-.158.01-.313.049-.46.118zm1.736 1.561a1.28 1.28 0 0 0 .071-.342l.248.246a.84.84 0 0 1 .198.877 1.28 1.28 0 0 0-.071.342l-.248-.246a.843.843 0 0 1-.198-.877zm2.904 1.627a3.352 3.352 0 0 0-.793-3.502l-.283-.281a1.26 1.26 0 0 0 .554-.322l1.886-1.872a.85.85 0 0 1 1.195 0l2.016 2.002a.831.831 0 0 1 0 1.186l-4.07 4.04a.85.85 0 0 1-1.195 0l-.421-.419a1.267 1.267 0 0 0 1.111-.832z" class="cls-1"/></g></svg>