<svg xmlns="http://www.w3.org/2000/svg" xmlns:xlink="http://www.w3.org/1999/xlink" preserveAspectRatio="xMidYMid" width="140" height="140" viewBox="0 0 140 140">
  <defs>
    <style>
      .cls-1 {
        fill: #fff;
        fill-rule: evenodd;
      }
    </style>
  </defs>
  <path d="M129.314,140.000 L63.525,140.000 L10.776,140.000 C10.411,140.000 10.048,139.975 9.681,139.951 C9.365,139.903 9.072,139.878 8.780,139.805 C8.732,139.805 8.682,139.780 8.636,139.780 C8.269,139.707 7.929,139.634 7.613,139.513 C7.223,139.391 6.883,139.268 6.520,139.124 C2.699,137.515 -0.002,133.718 -0.002,129.311 L-0.002,10.688 C-0.002,4.795 4.792,-0.000 10.680,-0.000 L63.526,-0.000 C69.414,-0.000 74.208,4.795 74.208,10.688 L74.208,65.739 L129.317,65.739 C135.204,65.739 139.998,70.535 139.998,76.427 L139.998,129.311 C139.996,135.204 135.204,140.000 129.314,140.000 ZM70.555,10.686 C70.555,6.814 67.394,3.651 63.525,3.651 L41.968,3.651 L10.680,3.651 C6.812,3.651 3.650,6.816 3.650,10.686 L3.650,68.489 C4.988,67.272 6.666,66.372 8.514,65.983 L8.514,18.869 C8.514,18.382 8.708,17.920 9.048,17.577 C9.389,17.237 9.851,17.042 10.338,17.042 L41.968,17.042 L63.865,17.042 C64.352,17.042 64.813,17.237 65.154,17.577 C65.496,17.918 65.690,18.382 65.690,18.869 L65.690,65.738 L70.555,65.738 L70.555,10.686 ZM12.163,20.695 L12.163,65.739 L62.041,65.739 L62.041,20.695 L62.040,20.695 L12.163,20.695 ZM136.344,107.739 L136.344,76.427 C136.344,72.555 133.182,69.392 129.314,69.392 L10.776,69.392 C6.908,69.392 3.746,72.557 3.746,76.427 L3.746,102.869 L3.746,129.310 C3.746,131.477 4.743,133.449 6.300,134.739 C6.495,134.885 6.665,135.006 6.859,135.152 C7.055,135.299 7.225,135.420 7.443,135.493 C7.833,135.712 8.245,135.882 8.685,136.028 C9.025,136.126 9.341,136.200 9.707,136.248 C9.780,136.273 9.876,136.296 9.973,136.296 C10.048,136.296 10.120,136.321 10.193,136.321 C10.388,136.346 10.583,136.346 10.776,136.346 L63.525,136.346 L129.314,136.346 C133.182,136.346 136.344,133.180 136.344,129.310 L136.344,107.739 ZM129.655,112.000 C127.294,112.000 125.397,110.100 125.397,107.739 L125.397,98.000 C125.397,95.638 127.294,93.739 129.655,93.739 C132.014,93.739 133.912,95.638 133.912,98.000 L133.912,107.739 C133.912,110.100 132.014,112.000 129.655,112.000 ZM130.263,98.000 C130.263,97.659 129.994,97.391 129.655,97.391 C129.314,97.391 129.046,97.659 129.046,98.000 L129.046,107.739 C129.046,108.080 129.314,108.347 129.655,108.347 C129.994,108.347 130.263,108.080 130.263,107.739 L130.263,98.000 ZM121.139,131.478 L21.385,131.478 C20.898,131.478 20.438,131.284 20.096,130.943 C19.755,130.603 19.561,130.139 19.561,129.652 L19.561,102.869 L19.561,76.087 C19.561,75.600 19.755,75.138 20.096,74.795 C20.438,74.455 20.898,74.260 21.385,74.260 L121.139,74.260 C121.626,74.260 122.088,74.455 122.429,74.795 C122.770,75.136 122.964,75.600 122.964,76.087 L122.964,107.739 L122.964,129.652 C122.964,130.139 122.770,130.601 122.429,130.943 C122.088,131.285 121.626,131.478 121.139,131.478 ZM119.315,77.913 L23.210,77.913 L23.210,127.826 L119.315,127.826 L119.315,77.913 ZM11.653,109.053 C8.245,109.053 5.473,106.278 5.473,102.869 C5.473,99.460 8.245,96.684 11.653,96.684 C15.059,96.684 17.833,99.459 17.833,102.869 C17.833,106.277 15.059,109.053 11.653,109.053 ZM11.653,100.336 C10.242,100.336 9.122,101.456 9.122,102.869 C9.122,104.258 10.242,105.401 11.653,105.401 C13.041,105.401 14.183,104.281 14.183,102.869 C14.183,101.456 13.041,100.336 11.653,100.336 ZM41.968,14.608 L32.235,14.608 C29.875,14.608 27.977,12.708 27.977,10.347 C27.977,7.986 29.875,6.086 32.235,6.086 L41.968,6.086 C44.327,6.086 46.225,7.986 46.225,10.347 C46.225,12.708 44.327,14.608 41.968,14.608 ZM41.969,9.739 L32.236,9.739 C31.897,9.739 31.629,10.007 31.629,10.347 C31.629,10.688 31.897,10.955 32.236,10.955 L41.969,10.955 C42.310,10.955 42.578,10.688 42.578,10.347 C42.578,10.007 42.310,9.739 41.969,9.739 ZM112.156,46.998 C111.127,46.998 110.316,46.184 110.316,45.203 L110.316,41.447 C110.316,38.767 109.188,36.325 107.374,34.555 C105.560,32.785 103.083,31.709 100.311,31.709 L98.276,31.709 L100.410,33.791 C101.123,34.485 101.123,35.609 100.410,36.327 C99.699,37.021 98.523,37.021 97.812,36.327 L92.540,31.183 C92.369,31.016 92.247,30.825 92.147,30.609 C92.049,30.393 92.000,30.153 92.000,29.914 C92.000,29.674 92.049,29.436 92.147,29.220 C92.245,29.006 92.367,28.813 92.540,28.646 L97.812,23.502 C98.523,22.808 99.699,22.808 100.410,23.502 C101.123,24.196 101.123,25.345 100.410,26.038 L98.276,28.120 L100.311,28.120 C107.865,28.120 113.996,34.077 113.996,41.447 L113.996,45.203 C113.996,46.184 113.161,46.998 112.156,46.998 Z" class="cls-1"/>
</svg>
