<svg xmlns="http://www.w3.org/2000/svg" width="20" height="20" viewBox="0 0 20 20"><style>.st0{display:none}.st1{fill:#1a1012}.st1,.st2{display:inline}.st3{fill:#ccc}</style><g id="Layer_1" class="st0"><path id="XMLID_1_" class="st1" d="M0 0h20v20H0z"/><g id="XMLID_3_"><g id="XMLID_4_" transform="translate(-172 -21)" class="st2"><g id="contacts"><path id="XMLID_5_" class="st3" d="M189.7 36.7V29c-.2.2-.4.5-.7.7-1.8 1.4-3.2 2.5-4.3 3.4-.3.3-.6.5-.8.7-.2.2-.5.3-.9.5s-.7.2-1 .2c-.3 0-.7-.1-1-.2-.4-.2-.7-.3-.9-.5-.2-.2-.5-.4-.8-.7-1.1-.9-2.5-2-4.3-3.4-.2-.2-.5-.4-.7-.7v7.7c0 .1 0 .2.1.2s.1.1.2.1h14.8c.1 0 .2 0 .2-.1s.1-.1.1-.2zm0-10.6v-.2-.1-.1s0-.1-.1-.1l-.1-.1h-14.9c-.1 0-.2 0-.2.1-.1.1-.1.1-.1.2 0 1.1.5 2.1 1.5 2.9 1.3 1 2.6 2.1 4 3.2 0 0 .2.1.4.3.2.2.3.3.5.4.1.1.3.2.4.3.2.1.4.2.5.3.2.1.3.1.4.1.1 0 .3 0 .4-.1.2-.1.3-.2.5-.3.2-.1.3-.2.4-.3.1-.1.3-.2.5-.4s.3-.3.4-.3c1.4-1.1 2.7-2.2 4-3.2.4-.3.7-.7 1-1.2.4-.5.5-1 .5-1.4zm1.3-.4v10.9c0 .4-.2.8-.5 1.1-.3.3-.7.5-1.1.5h-14.8c-.4 0-.8-.2-1.1-.5-.3-.3-.5-.7-.5-1.1V25.7c0-.4.2-.8.5-1.1.3-.3.7-.5 1.1-.5h14.8c.4 0 .8.2 1.1.5.3.3.5.7.5 1.1z"/></g></g></g></g><g id="Layer_2" class="st0"><g id="Symbols" class="st2"><g id="footer" transform="translate(-172 -135)"><g id="Shape"><path id="XMLID_11_" class="st3" d="M182 137.6c2.4 0 2.7 0 3.6.1.6 0 1.1.1 1.7.3.8.3 1.4.9 1.7 1.7.2.5.3 1.1.3 1.7 0 .9.1 1.2.1 3.6s0 2.7-.1 3.6c0 .6-.1 1.1-.3 1.7-.3.8-.9 1.4-1.7 1.7-.5.2-1.1.3-1.7.3-.9 0-1.2.1-3.6.1s-2.7 0-3.6-.1c-.6 0-1.1-.1-1.7-.3-.8-.3-1.4-.9-1.7-1.7-.2-.5-.3-1.1-.3-1.7 0-.9-.1-1.2-.1-3.6s0-2.7.1-3.6c0-.6.1-1.1.3-1.7.3-.8.9-1.4 1.7-1.7.5-.2 1.1-.3 1.7-.3.9-.1 1.2-.1 3.6-.1zm0-1.6c-2.4 0-2.8 0-3.7.1-.7 0-1.5.2-2.2.4-1.2.5-2.2 1.4-2.6 2.6-.3.7-.4 1.4-.4 2.2 0 1-.1 1.3-.1 3.7s0 2.8.1 3.7c0 .7.2 1.5.4 2.2.5 1.2 1.4 2.2 2.6 2.6.7.3 1.4.4 2.2.4 1 0 1.3.1 3.7.1s2.8 0 3.7-.1c.7 0 1.5-.2 2.2-.4 1.2-.5 2.2-1.4 2.6-2.6.3-.7.4-1.4.4-2.2 0-1 .1-1.3.1-3.7s0-2.8-.1-3.7c0-.7-.2-1.5-.4-2.2-.5-1.2-1.4-2.2-2.6-2.6-.7-.3-1.4-.4-2.2-.4-.9-.1-1.3-.1-3.7-.1zm0 4.4c-2.6 0-4.6 2.1-4.6 4.6s2.1 4.6 4.6 4.6 4.6-2.1 4.6-4.6c0-2.6-2-4.6-4.6-4.6zm0 7.6c-1.7 0-3-1.3-3-3s1.3-3 3-3 3 1.3 3 3c0 .8-.3 1.6-.9 2.1s-1.3.9-2.1.9zm5.9-7.8c0 .6-.5 1.1-1.1 1.1s-1.1-.5-1.1-1.1.5-1.1 1.1-1.1c.6 0 1.1.5 1.1 1.1z"/></g></g></g></g><g id="Layer_3"><g id="Symbols_1_"><g id="footer_1_" transform="translate(-172 -192)"><g id="lang"><path id="XMLID_17_" class="st3" d="M180.7 203.8h-.1c-.1 0-.2-.1-.3-.1l-.2-.1c-.3-.1-.6-.3-.9-.5 0 0-.2-.1-.4-.3s-.4-.3-.4-.3c-.4.7-.9 1.3-1.3 1.8-.5.6-.9 1-1.1 1.1h-.4s.3-.3.8-.9c.1-.2.4-.5.9-1.2.4-.6.7-1 .8-1.2.1-.2.3-.5.5-1s.3-.7.4-.8c-.1 0-.4.1-1.1.3-.1 0-.1 0-.3.1-.1 0-.2.1-.3.1-.1 0-.2 0-.2.1v.2c0 .1-.1.1-.3.2h-.5c-.1 0-.2-.1-.3-.2 0 0 0-.1-.1-.2 0 0 .1 0 .2-.1.1 0 .2 0 .3-.1.4-.1.7-.2 1.1-.3.7-.2 1-.4 1-.4.1 0 .2-.1.4-.2l.4-.2c.1 0 .1 0 .2-.1l.1-.1h.1v.3s0 .1-.1.3c-.1.2-.2.3-.3.5s-.2.3-.2.3c-.2.3-.4.8-.8 1.3l.6.3c.1 0 .3.1.7.3.4.2.6.3.7.3 0 0 .1.1.1.3.3.4.3.5.3.5zm-2.1-4.9v.3c-.1.2-.2.3-.5.4-.2.1-.4.1-.6.1-.2 0-.3-.1-.5-.3-.1-.1-.2-.2-.2-.4 0 0 .1 0 .2.1h.3c.1 0 .3-.1.6-.2.2-.1.4-.1.6-.1 0 0 .1 0 .1.1zm7 1.3l.6 2.3-1.4-.4.8-1.9zm-11.1 8.1l7-2.3v-10.4l-7 2.3v10.4zm12.4-3.2l1 .3-1.8-6.6-1-.3-2.2 5.4 1 .3.5-1.1 2.1.7.4 1.3zm-5-9.7l5.8 1.8v-3.8l-5.8 2zm3.1 13.3l1.6.1-.5 1.6-.4-.7c-.9.6-1.8.9-2.8 1.1-.4.1-.7.1-.9.1h-.8c-.5 0-1.2-.1-2-.4-.8-.3-1.4-.5-1.8-.9-.1 0-.1-.1-.1-.2s0-.1.1-.1l.1-.1s.1 0 .2.1.2.1.3.2c.1.1.2.1.2.1.5.2 1 .5 1.6.6s1.1.2 1.6.2c.6 0 1.2 0 1.7-.1s1-.3 1.6-.5c.1 0 .2-.1.3-.2.1-.1.2-.1.3-.2s.2-.1.3-.2l-.6-.5zm4.5-10.8v10.8l-7.8-2.5c-.1 0-1.3.5-3.8 1.3-2.4.8-3.6 1.2-3.7 1.2-.1 0-.1 0-.2-.1v-10.8-.1s.1-.1.2-.1c.7-.2 1.2-.4 1.5-.5v-3.9l5.6 2s.6-.2 1.6-.6c1.1-.4 2.1-.7 3.2-1.1s1.6-.5 1.6-.5c.1 0 .2.1.2.2v4.2l1.6.5z"/></g></g></g></g></svg>