<svg xmlns="http://www.w3.org/2000/svg" preserveAspectRatio="xMidYMid" width="20" height="20" viewBox="0 0 20 20"><defs><style>.cls-1{fill:#ff11a4;fill-rule:evenodd}</style><clipPath id="clip-path-1"><path d="M-606.03-299.598h1200v3215h-1200z"/></clipPath></defs><g clip-path="url(#clip-path-1)"><path d="M17.914 5.092a6.492 6.492 0 0 1-1.867.502 3.237 3.237 0 0 0 1.425-1.787 6.4 6.4 0 0 1-2.058.783 3.233 3.233 0 0 0-2.369-1.024 3.241 3.241 0 0 0-3.243 3.243c0 .251.03.502.08.743a9.22 9.22 0 0 1-6.687-3.394 3.244 3.244 0 0 0 1.004 4.338 3.28 3.28 0 0 1-1.466-.412v.04a3.244 3.244 0 0 0 2.601 3.183 3.44 3.44 0 0 1-.854.11c-.211 0-.411-.02-.612-.05A3.249 3.249 0 0 0 6.9 13.616a6.49 6.49 0 0 1-4.026 1.386c-.271 0-.522-.01-.783-.041a9.16 9.16 0 0 0 4.98 1.456c5.964 0 9.227-4.939 9.227-9.227 0-.14 0-.281-.01-.421a6.999 6.999 0 0 0 1.626-1.677z" class="cls-1"/></g></svg>