<svg xmlns="http://www.w3.org/2000/svg" preserveAspectRatio="xMidYMid" width="19" height="20" viewBox="0 0 19 20"><defs><style>.cls-1{fill:#ff11a4;fill-rule:evenodd}</style><clipPath id="clip-path-1"><path d="M-564.8-302.671h1200v3215h-1200z"/></clipPath></defs><g clip-path="url(#clip-path-1)"><path d="M19.126 5.313s-.14-.401-1.014-.291l-2.891.02c-.221-.03-.382.061-.382.061s-.171.09-.251.311a18.56 18.56 0 0 1-1.074 2.259c-1.285 2.189-1.808 2.309-2.018 2.169-.492-.312-.362-1.266-.362-1.948 0-2.129.321-3.012-.632-3.243-.312-.071-.543-.121-1.356-.131-1.034-.01-1.907 0-2.399.241-.332.161-.583.522-.432.542.191.03.622.121.853.432 0 0 .251.412.291 1.315.111 2.5-.401 2.812-.401 2.812-.392.21-1.075-.141-2.079-2.209 0 0-.582-1.024-1.034-2.149-.08-.211-.241-.321-.241-.321s-.18-.141-.441-.181l-2.751.02c-.422 0-.573.191-.573.191s-.15.161-.01.492c2.149 5.05 4.599 7.58 4.599 7.58s2.239 2.34 4.779 2.179h1.154c.352-.03.533-.221.533-.221s.16-.18.15-.512c-.02-1.546.703-1.777.703-1.777.703-.221 1.606 1.496 2.57 2.159 0 0 .733.502 1.285.391l2.571-.04c1.355-.01.713-1.134.713-1.134-.051-.091-.372-.784-1.918-2.219-1.607-1.496-1.396-1.255.552-3.846 1.185-1.576 1.657-2.54 1.506-2.952z" class="cls-1"/></g></svg>